<mxfile host="app.diagrams.net" agent="Mozilla/5.0 (Windows NT 10.0; Win64; x64) AppleWebKit/537.36 (KHTML, like Gecko) Chrome/127.0.0.0 Safari/537.36" version="24.7.7">
  <diagram name="Page-1" id="EzuPF3TmBDLYeIxFD4xl">
    <mxGraphModel dx="1461" dy="647" grid="1" gridSize="10" guides="1" tooltips="1" connect="1" arrows="1" fold="1" page="1" pageScale="1" pageWidth="827" pageHeight="1169" math="0" shadow="0">
      <root>
        <mxCell id="0" />
        <mxCell id="1" parent="0" />
        <mxCell id="wSXhQ523ec6q_1VO8_bJ-1" value="User" style="swimlane;fontStyle=0;childLayout=stackLayout;horizontal=1;startSize=26;fillColor=none;horizontalStack=0;resizeParent=1;resizeParentMax=0;resizeLast=0;collapsible=1;marginBottom=0;whiteSpace=wrap;html=1;" vertex="1" parent="1">
          <mxGeometry x="310" y="70" width="140" height="130" as="geometry" />
        </mxCell>
        <mxCell id="wSXhQ523ec6q_1VO8_bJ-2" value="id" style="text;strokeColor=none;fillColor=none;align=left;verticalAlign=top;spacingLeft=4;spacingRight=4;overflow=hidden;rotatable=0;points=[[0,0.5],[1,0.5]];portConstraint=eastwest;whiteSpace=wrap;html=1;" vertex="1" parent="wSXhQ523ec6q_1VO8_bJ-1">
          <mxGeometry y="26" width="140" height="26" as="geometry" />
        </mxCell>
        <mxCell id="wSXhQ523ec6q_1VO8_bJ-3" value="username" style="text;strokeColor=none;fillColor=none;align=left;verticalAlign=top;spacingLeft=4;spacingRight=4;overflow=hidden;rotatable=0;points=[[0,0.5],[1,0.5]];portConstraint=eastwest;whiteSpace=wrap;html=1;" vertex="1" parent="wSXhQ523ec6q_1VO8_bJ-1">
          <mxGeometry y="52" width="140" height="26" as="geometry" />
        </mxCell>
        <mxCell id="wSXhQ523ec6q_1VO8_bJ-4" value="email" style="text;strokeColor=none;fillColor=none;align=left;verticalAlign=top;spacingLeft=4;spacingRight=4;overflow=hidden;rotatable=0;points=[[0,0.5],[1,0.5]];portConstraint=eastwest;whiteSpace=wrap;html=1;" vertex="1" parent="wSXhQ523ec6q_1VO8_bJ-1">
          <mxGeometry y="78" width="140" height="26" as="geometry" />
        </mxCell>
        <mxCell id="wSXhQ523ec6q_1VO8_bJ-5" value="password" style="text;strokeColor=none;fillColor=none;align=left;verticalAlign=top;spacingLeft=4;spacingRight=4;overflow=hidden;rotatable=0;points=[[0,0.5],[1,0.5]];portConstraint=eastwest;whiteSpace=wrap;html=1;" vertex="1" parent="wSXhQ523ec6q_1VO8_bJ-1">
          <mxGeometry y="104" width="140" height="26" as="geometry" />
        </mxCell>
        <mxCell id="wSXhQ523ec6q_1VO8_bJ-7" value="Task" style="swimlane;fontStyle=0;childLayout=stackLayout;horizontal=1;startSize=26;fillColor=none;horizontalStack=0;resizeParent=1;resizeParentMax=0;resizeLast=0;collapsible=1;marginBottom=0;whiteSpace=wrap;html=1;" vertex="1" parent="1">
          <mxGeometry x="120" y="303" width="140" height="130" as="geometry" />
        </mxCell>
        <mxCell id="wSXhQ523ec6q_1VO8_bJ-8" value="id" style="text;strokeColor=none;fillColor=none;align=left;verticalAlign=top;spacingLeft=4;spacingRight=4;overflow=hidden;rotatable=0;points=[[0,0.5],[1,0.5]];portConstraint=eastwest;whiteSpace=wrap;html=1;" vertex="1" parent="wSXhQ523ec6q_1VO8_bJ-7">
          <mxGeometry y="26" width="140" height="26" as="geometry" />
        </mxCell>
        <mxCell id="wSXhQ523ec6q_1VO8_bJ-9" value="title" style="text;strokeColor=none;fillColor=none;align=left;verticalAlign=top;spacingLeft=4;spacingRight=4;overflow=hidden;rotatable=0;points=[[0,0.5],[1,0.5]];portConstraint=eastwest;whiteSpace=wrap;html=1;" vertex="1" parent="wSXhQ523ec6q_1VO8_bJ-7">
          <mxGeometry y="52" width="140" height="26" as="geometry" />
        </mxCell>
        <mxCell id="wSXhQ523ec6q_1VO8_bJ-10" value="description" style="text;strokeColor=none;fillColor=none;align=left;verticalAlign=top;spacingLeft=4;spacingRight=4;overflow=hidden;rotatable=0;points=[[0,0.5],[1,0.5]];portConstraint=eastwest;whiteSpace=wrap;html=1;" vertex="1" parent="wSXhQ523ec6q_1VO8_bJ-7">
          <mxGeometry y="78" width="140" height="26" as="geometry" />
        </mxCell>
        <mxCell id="wSXhQ523ec6q_1VO8_bJ-11" value="completed" style="text;strokeColor=none;fillColor=none;align=left;verticalAlign=top;spacingLeft=4;spacingRight=4;overflow=hidden;rotatable=0;points=[[0,0.5],[1,0.5]];portConstraint=eastwest;whiteSpace=wrap;html=1;" vertex="1" parent="wSXhQ523ec6q_1VO8_bJ-7">
          <mxGeometry y="104" width="140" height="26" as="geometry" />
        </mxCell>
        <mxCell id="wSXhQ523ec6q_1VO8_bJ-12" value="Project" style="swimlane;fontStyle=0;childLayout=stackLayout;horizontal=1;startSize=26;fillColor=none;horizontalStack=0;resizeParent=1;resizeParentMax=0;resizeLast=0;collapsible=1;marginBottom=0;whiteSpace=wrap;html=1;" vertex="1" parent="1">
          <mxGeometry x="480" y="316" width="140" height="104" as="geometry" />
        </mxCell>
        <mxCell id="wSXhQ523ec6q_1VO8_bJ-13" value="id" style="text;strokeColor=none;fillColor=none;align=left;verticalAlign=top;spacingLeft=4;spacingRight=4;overflow=hidden;rotatable=0;points=[[0,0.5],[1,0.5]];portConstraint=eastwest;whiteSpace=wrap;html=1;" vertex="1" parent="wSXhQ523ec6q_1VO8_bJ-12">
          <mxGeometry y="26" width="140" height="26" as="geometry" />
        </mxCell>
        <mxCell id="wSXhQ523ec6q_1VO8_bJ-14" value="name" style="text;strokeColor=none;fillColor=none;align=left;verticalAlign=top;spacingLeft=4;spacingRight=4;overflow=hidden;rotatable=0;points=[[0,0.5],[1,0.5]];portConstraint=eastwest;whiteSpace=wrap;html=1;" vertex="1" parent="wSXhQ523ec6q_1VO8_bJ-12">
          <mxGeometry y="52" width="140" height="26" as="geometry" />
        </mxCell>
        <mxCell id="wSXhQ523ec6q_1VO8_bJ-15" value="description" style="text;strokeColor=none;fillColor=none;align=left;verticalAlign=top;spacingLeft=4;spacingRight=4;overflow=hidden;rotatable=0;points=[[0,0.5],[1,0.5]];portConstraint=eastwest;whiteSpace=wrap;html=1;" vertex="1" parent="wSXhQ523ec6q_1VO8_bJ-12">
          <mxGeometry y="78" width="140" height="26" as="geometry" />
        </mxCell>
        <mxCell id="wSXhQ523ec6q_1VO8_bJ-17" value="" style="endArrow=block;endFill=1;html=1;edgeStyle=orthogonalEdgeStyle;align=left;verticalAlign=top;rounded=0;" edge="1" parent="1" source="wSXhQ523ec6q_1VO8_bJ-1" target="wSXhQ523ec6q_1VO8_bJ-7">
          <mxGeometry x="-1" relative="1" as="geometry">
            <mxPoint x="330" y="330" as="sourcePoint" />
            <mxPoint x="490" y="330" as="targetPoint" />
          </mxGeometry>
        </mxCell>
        <mxCell id="wSXhQ523ec6q_1VO8_bJ-18" value="1" style="edgeLabel;resizable=0;html=1;align=left;verticalAlign=bottom;" connectable="0" vertex="1" parent="wSXhQ523ec6q_1VO8_bJ-17">
          <mxGeometry x="-1" relative="1" as="geometry">
            <mxPoint x="-20" as="offset" />
          </mxGeometry>
        </mxCell>
        <mxCell id="wSXhQ523ec6q_1VO8_bJ-19" value="0..*" style="text;html=1;align=center;verticalAlign=middle;resizable=0;points=[];autosize=1;strokeColor=none;fillColor=none;" vertex="1" parent="1">
          <mxGeometry x="150" y="268" width="40" height="30" as="geometry" />
        </mxCell>
        <mxCell id="wSXhQ523ec6q_1VO8_bJ-22" value="" style="endArrow=block;endFill=1;html=1;edgeStyle=orthogonalEdgeStyle;align=left;verticalAlign=top;rounded=0;entryX=0.5;entryY=0;entryDx=0;entryDy=0;" edge="1" parent="1" source="wSXhQ523ec6q_1VO8_bJ-1" target="wSXhQ523ec6q_1VO8_bJ-12">
          <mxGeometry x="-1" relative="1" as="geometry">
            <mxPoint x="670" y="110" as="sourcePoint" />
            <mxPoint x="550" y="278" as="targetPoint" />
          </mxGeometry>
        </mxCell>
        <mxCell id="wSXhQ523ec6q_1VO8_bJ-23" value="1" style="edgeLabel;resizable=0;html=1;align=left;verticalAlign=bottom;" connectable="0" vertex="1" parent="wSXhQ523ec6q_1VO8_bJ-22">
          <mxGeometry x="-1" relative="1" as="geometry">
            <mxPoint x="3" y="-1" as="offset" />
          </mxGeometry>
        </mxCell>
        <mxCell id="wSXhQ523ec6q_1VO8_bJ-24" value="0..*" style="text;html=1;align=center;verticalAlign=middle;resizable=0;points=[];autosize=1;strokeColor=none;fillColor=none;" vertex="1" parent="1">
          <mxGeometry x="550" y="278" width="40" height="30" as="geometry" />
        </mxCell>
        <mxCell id="wSXhQ523ec6q_1VO8_bJ-30" value="" style="endArrow=block;endFill=1;html=1;edgeStyle=orthogonalEdgeStyle;align=left;verticalAlign=top;rounded=0;" edge="1" parent="1" source="wSXhQ523ec6q_1VO8_bJ-7" target="wSXhQ523ec6q_1VO8_bJ-12">
          <mxGeometry x="-1" relative="1" as="geometry">
            <mxPoint x="330" y="330" as="sourcePoint" />
            <mxPoint x="490" y="330" as="targetPoint" />
          </mxGeometry>
        </mxCell>
        <mxCell id="wSXhQ523ec6q_1VO8_bJ-31" value="1" style="edgeLabel;resizable=0;html=1;align=left;verticalAlign=bottom;" connectable="0" vertex="1" parent="wSXhQ523ec6q_1VO8_bJ-30">
          <mxGeometry x="-1" relative="1" as="geometry">
            <mxPoint x="2" as="offset" />
          </mxGeometry>
        </mxCell>
        <mxCell id="wSXhQ523ec6q_1VO8_bJ-32" value="0..1" style="edgeLabel;resizable=0;html=1;align=left;verticalAlign=bottom;" connectable="0" vertex="1" parent="1">
          <mxGeometry x="466" y="355" as="geometry">
            <mxPoint x="-18" y="12" as="offset" />
          </mxGeometry>
        </mxCell>
      </root>
    </mxGraphModel>
  </diagram>
</mxfile>
